PathFileType	4	(X/Y/Z)	30_2_100_p1_0-463_filt_butterworth.trc
DataRate	CameraRate	NumFrames	NumMarkers	Units	OrigDataRate	OrigDataStartFrame	OrigNumFrames
48.0	48.0	6	27	m	48.0	231	463
Frame#	Time	RHip			RKnee			RAnkle			RBigToe			RSmallToe			RHeel			LHip			LKnee			LAnkle			LBigToe			LSmallToe			LHeel			Neck			Head			Nose			RShoulder			RElbow			RWrist			RThumb			RIndex			RPinky			LShoulder			LElbow			LWrist			LThumb			LIndex			LPinky			
		X1	Y1	Z1	X2	Y2	Z2	X3	Y3	Z3	X4	Y4	Z4	X5	Y5	Z5	X6	Y6	Z6	X7	Y7	Z7	X8	Y8	Z8	X9	Y9	Z9	X10	Y10	Z10	X11	Y11	Z11	X12	Y12	Z12	X13	Y13	Z13	X14	Y14	Z14	X15	Y15	Z15	X16	Y16	Z16	X17	Y17	Z17	X18	Y18	Z18	X19	Y19	Z19	X20	Y20	Z20	X21	Y21	Z21	X22	Y22	Z22	X23	Y23	Z23	X24	Y24	Z24	X25	Y25	Z25	X26	Y26	Z26	X27	Y27	Z27	
231	4.8125	0.272850054951605	1.073451568877912	0.5300552743868365	0.28411384004326523	0.599319936654252	0.49863131736868704	0.2646002334066077	0.12578312508642975	0.5285270650685119	0.23867957219283878	0.17984506169043327	0.29816772364777044	0.3061137970878849	0.1614694765403249	0.34093963279319794	0.2620409687637964	0.013600372640414278	0.6176228590071231	0.043900865244981636	1.0669570189318844	0.5350464060549948	0.06957363920372615	0.5860171767026664	0.5241719683051824	0.07360575290626745	0.11690505554482132	0.5302285482552972	0.12256978195677529	0.18148011861650978	0.3048359887496024	0.07610054138264813	0.1687750245540401	0.3206026703425093	0.06338410168988934	0.054478081979820035	0.5739537462790931	0.16955703005542416	1.7054591955486602	0.6125084079315738	0.16670178187427154	1.9432391820669754	0.6329181212083039	0.1703522134378037	1.8404988749343745	0.5140551954698879	0.3457501349119152	1.570970233287247	0.5799502687569448	0.37720394568189863	1.3050931439692972	0.544387443514902	0.3468026356776806	1.1478214136194198	0.32263673131728077	0.24348058284036134	1.0677271350654938	0.1800344486939799	0.2574985617828481	1.0519697598612332	0.16319632726443942	0.30391794550858003	1.0023465613310634	0.25614980319549546	-0.015058430471006036	1.5899072062713036	0.6204387967133317	-0.05255524168616499	1.3295142356732017	0.5128837782954029	0.00861947287237523	1.1124870579604014	0.3554717911294038	0.08699288461657195	1.035253781391293	0.2910737729021571	0.07496210495005388	1.012573259197855	0.2720373548370578	0.027207987412406806	0.9932518791592999	0.29398479655246534	
232	4.833333333333333	0.2729940506139066	1.0725006814945028	0.5300890882694546	0.2837518569925247	0.5998007717600553	0.4976617947067568	0.26479511586176946	0.1259221067582937	0.5279856524977584	0.239214805064332	0.1817883000653379	0.29663175603383507	0.3054484906400687	0.16317136948903913	0.3384200406959198	0.2624055917158832	0.011223457521229838	0.6191608413024192	0.0443144763685243	1.065988352330354	0.5339490260747375	0.06982387408069077	0.5860420002537171	0.5243433362810136	0.07364820387359698	0.11646241280130437	0.530387825347628	0.12381858739895238	0.1819443576645117	0.30594426284053555	0.07613223056354874	0.1688661896978555	0.320479534104111	0.06268241862948618	0.05327193086210911	0.5754752070577321	0.16960659827739732	1.7045338863453476	0.6129696335331093	0.16778282655062726	1.9421747213768221	0.6334030306933471	0.17084492801410403	1.839529063123621	0.5133094866405453	0.34572430664281323	1.5711028400784481	0.5799611027053594	0.37723863356411547	1.3050364099268532	0.5443954745205022	0.3480376205599232	1.1458230002224106	0.32457486923608014	0.24525235110417426	1.0685156390546053	0.17487136707100226	0.2591977199161468	1.051200084282299	0.16512357561690796	0.3052752405291001	1.0022412561105658	0.2519371796096214	-0.015124377138252444	1.5898727952690055	0.6203889646780072	-0.052471862753106294	1.329478588790078	0.5127294377527652	0.011416248692974829	1.1130856256538508	0.35120178568637883	0.09132346723724541	1.0368213909605042	0.28684572908029893	0.07888207056985212	1.0130278323278676	0.266559408648618	0.02892330097483854	0.9933300624973259	0.2917021787396147	
233	4.854166666666667	0.2732846611930708	1.071598115368038	0.5301168168667472	0.2834489729063692	0.600127207985654	0.4971719859626891	0.2649395157534481	0.12643171927705568	0.5269667834715475	0.2398835266723776	0.18376627127984146	0.294417370386109	0.30445667063167003	0.16449354142943257	0.3363807034618746	0.262871103935881	0.008833178925263549	0.6208519405033631	0.044806485314269666	1.0650333621596042	0.5327633746703744	0.0700919064379378	0.5858810550936333	0.5245275958936165	0.07369774385428124	0.11599637333198756	0.5305472740927917	0.1251438175094089	0.1822441002132022	0.3069201905599078	0.07619926491811436	0.16873170810899135	0.32032068969411165	0.06198814717329848	0.05185186067295725	0.5765810452939714	0.16966390769620848	1.703027200457725	0.6153768505933569	0.16915645143868446	1.9413932557718372	0.63324454824165	0.17183117322458075	1.8389525031584875	0.5121944484842197	0.3457041841995352	1.5711007384548734	0.5800307228674323	0.3770784680065663	1.3050938501482288	0.5439560566716891	0.34933442724300123	1.1439956962849835	0.32616825635586594	0.2465639172208248	1.0692991649509014	0.17110080414022258	0.26064305577094865	1.0508269365678062	0.16677481944322475	0.3060406393313604	1.0015993652827497	0.2493844954232238	-0.015066127890654204	1.589825800434425	0.6203162822355455	-0.05239434125905284	1.3296224085278348	0.512602342163498	0.013771134394598837	1.1137651696438995	0.34762296515620805	0.09553311522681646	1.038522942672057	0.2822665381739999	0.08248346796816472	1.0134654801964416	0.2608094687320826	0.030298371536283234	0.9932920778732605	0.28990866526519665	
234	4.875	0.2736883009325511	1.0706934659835503	0.5301800357324599	0.28326030188433393	0.6003613159665568	0.49690588562518667	0.2650644968495232	0.12738675125165808	0.525324487407311	0.24052499856106208	0.1857140292145524	0.29169069737138376	0.3034901548710983	0.16541536533281365	0.3349552202922827	0.2633698172441269	0.006644390378712524	0.6223836588834085	0.04525271724725835	1.0640761484235306	0.5317259595705974	0.07038667717967895	0.5855671941311696	0.5247088014654598	0.0737588097573606	0.1154886191587242	0.5307087794699765	0.12634895318420483	0.18243240726604162	0.307832456510043	0.07626940504563588	0.1681354832732666	0.3202349086505775	0.061400873252549656	0.05055531028112359	0.5775199485648868	0.1697154614946682	1.7011884483877644	0.6194841578822003	0.17073705465253325	1.9410423322533084	0.63217544228987	0.17341835639651826	1.8382964313558525	0.5117068860315193	0.3456877206104004	1.5710471095904515	0.5801225496088798	0.37693432023478834	1.3051576226959187	0.543635404584559	0.3504691267085698	1.1427993876771732	0.32713001511655415	0.247199061964851	1.0701309627484867	0.1693872116586568	0.26163722534180994	1.0507083484336681	0.16788646632706916	0.30616622383995595	1.0005680851639565	0.24889163914659165	-0.014772829112186053	1.589807697992867	0.6203258668847408	-0.05229991173560046	1.3300144537909544	0.5124045095377682	0.016039191915230466	1.114558889864632	0.3444606292930926	0.0992092096714767	1.039997520307059	0.2779720296014065	0.08537238223702551	1.014236319587977	0.25576954661756046	0.03097220700680045	0.9934877144584844	0.28881479959102613	
235	4.895833333333333	0.2741253294833499	1.0696356288538227	0.5302785927278894	0.28324145287609126	0.6005915748477316	0.496580586101406	0.2651875144022657	0.1285840122159399	0.5232489419923596	0.24096486172480813	0.18755318994064538	0.288719539090426	0.30287507037728845	0.16624997272582898	0.33374875397907394	0.2638115307546261	0.004839118539030622	0.6234892998236278	0.0456494131392975	1.0630147342192084	0.5308742815399587	0.07073301446011242	0.5850379866754284	0.5249060039091292	0.07383749058107919	0.1149017560210382	0.5308815432823204	0.1269821326707599	0.18263559100549226	0.30852802320859324	0.07623779061410774	0.1673943127848345	0.32028979185677997	0.0609208543754154	0.04959796672337194	0.5783368544087335	0.16975362512706083	1.699261244381475	0.6245246649916184	0.17254558666349257	1.9411973816363715	0.6304555741248111	0.1758406615272522	1.8371156785968503	0.5127894475698457	0.34567300254187217	1.5710115917675658	0.5802212665776647	0.37688789309427034	1.305181363348451	0.5436264971495325	0.35131230614015235	1.1425169873390957	0.3273753053790918	0.24746983402991923	1.0715494728448238	0.16881759256021392	0.26207145329138487	1.0506587836594943	0.1682624504724417	0.3059510031291709	0.9998210398269113	0.24972573393674605	-0.014211571242105637	1.5898929129604367	0.6204940319442842	-0.05213328065733855	1.3305205087806815	0.511971404992797	0.01852377869404054	1.115617540612826	0.3412640463920406	0.10202062415755193	1.0410424835477345	0.2744420155145089	0.08744543060436558	1.0155337592325209	0.2517734937675531	0.03086902649133788	0.9941682814479843	0.28839859878814755	
236	4.916666666666667	0.27452650891534447	1.0683691860384819	0.5304079351000134	0.2834000728845888	0.6008372469911556	0.4961282596541923	0.2652823460825892	0.12955065564379833	0.5213362267256334	0.24112712390949925	0.18898691635691797	0.28589987368759756	0.3025866988005473	0.1673151675935691	0.3322847905826213	0.2642002462575478	0.0033160074424860263	0.6242210649967526	0.04606377623785333	1.0618166623150063	0.5301645172494784	0.07113411852161901	0.5842966321466893	0.5251414693900361	0.07392925240102322	0.11425449284654506	0.5310617437743711	0.12657954303385366	0.18290100679321347	0.3086767719218985	0.07604837398803342	0.16703855193633516	0.32044933682828686	0.06051386609049606	0.04908263101600044	0.5788975748728474	0.16977354247049115	1.6974683038559197	0.6297794841709143	0.17460804660380858	1.9417423240590657	0.6282120300822538	0.1790513351451241	1.8353231957254914	0.5157314695166206	0.3456605429395742	1.5709962899797698	0.5803273108255693	0.3768979339088928	1.3051518588614994	0.5437872082245147	0.35192040308793354	1.1431362959865266	0.327252535623034	0.2478890892946573	1.07395034142604	0.16787905349659335	0.2619992200773049	1.0505982679112411	0.16806837960714116	0.3057748285007745	1.0001085437928163	0.2506009652240005	-0.013449927359451181	1.5900120840324599	0.6208203280134938	-0.05196054748691291	1.3308667373686955	0.5115163088120512	0.020965912224523528	1.1171419537332683	0.3378946538586867	0.10397013367644597	1.041837902614866	0.27148664053254706	0.0887404603692167	1.0172277451170166	0.24844456591944275	0.030315460723023355	0.9952004320288304	0.2883209448396618	
